<svg xmlns="http://www.w3.org/2000/svg" xmlns:xlink="http://www.w3.org/1999/xlink" width="500" zoomAndPan="magnify" viewBox="0 0 375 374.999991" height="500" preserveAspectRatio="xMidYMid meet" version="1.0"><defs><g/></defs><g fill="#5e17eb" fill-opacity="1"><g transform="translate(-8.337162, 289.355396)"><g><path d="M 137.257812 -104.058594 L 160.195312 -104.058594 C 162.933594 -104.058594 165.328125 -106.453125 165.328125 -109.191406 L 165.328125 -130.070312 C 165.328125 -133.496094 163.957031 -136.574219 161.5625 -138.972656 L 131.441406 -169.777344 C 128.703125 -172.515625 125.621094 -173.886719 121.171875 -173.886719 L 55.109375 -173.886719 C 51 -173.886719 48.261719 -172.859375 45.183594 -169.777344 L 14.375 -138.972656 C 12.324219 -136.917969 10.269531 -133.496094 10.269531 -130.070312 L 10.269531 -41.417969 C 10.269531 -37.996094 12.324219 -34.570312 14.375 -32.519531 L 45.183594 -1.710938 C 48.261719 1.710938 51 2.738281 55.109375 2.738281 L 121.171875 2.738281 C 125.621094 2.738281 128.703125 1.371094 131.441406 -1.710938 L 161.5625 -32.519531 C 163.957031 -34.914062 165.328125 -37.996094 165.328125 -41.417969 L 165.328125 -62.296875 C 165.328125 -65.035156 162.933594 -67.433594 160.195312 -67.433594 L 137.257812 -67.433594 C 134.519531 -67.433594 132.125 -65.035156 132.125 -62.296875 L 132.125 -50.316406 C 132.125 -47.921875 131.78125 -46.210938 129.730469 -44.5 L 118.777344 -34.230469 C 117.0625 -32.519531 115.695312 -31.492188 113.300781 -31.492188 L 64.695312 -31.492188 C 62.980469 -31.492188 61.613281 -32.175781 59.558594 -34.230469 L 48.605469 -44.5 C 46.894531 -46.210938 46.210938 -47.921875 46.210938 -50.316406 L 46.210938 -121.171875 C 46.210938 -123.566406 46.894531 -125.28125 48.605469 -126.992188 L 59.558594 -137.257812 C 61.613281 -139.3125 62.980469 -140 64.695312 -140 L 113.300781 -140 C 115.695312 -140 117.0625 -138.972656 118.777344 -137.257812 L 129.730469 -126.992188 C 131.78125 -125.28125 132.125 -123.566406 132.125 -121.171875 L 132.125 -109.191406 C 132.125 -106.453125 134.519531 -104.058594 137.257812 -104.058594 Z M 137.257812 -104.058594 "/></g></g></g><g fill="#ff66c4" fill-opacity="1"><g transform="translate(164.981906, 280.657742)"><g><path d="M 204.863281 -186.1875 C 203.988281 -186.1875 203.402344 -187.0625 202.234375 -187.0625 C 193.773438 -187.0625 186.1875 -170.136719 185.894531 -169.84375 C 182.683594 -164.296875 174.804688 -157.878906 174.804688 -150.289062 C 174.804688 -149.414062 174.804688 -149.125 174.511719 -148.832031 L 171.300781 -143.871094 C 159.628906 -123.734375 144.164062 -102.722656 141.246094 -89.007812 C 139.785156 -83.460938 135.117188 -78.792969 132.78125 -73.25 C 126.945312 -59.53125 121.398438 -46.402344 115.273438 -32.683594 C 115.5625 -36.1875 116.4375 -40.273438 116.4375 -43.773438 L 115.855469 -51.652344 C 115.855469 -63.035156 118.191406 -73.832031 119.066406 -85.214844 C 119.941406 -99.511719 121.109375 -113.8125 121.109375 -127.820312 C 121.109375 -139.492188 119.355469 -152.625 101.554688 -152.625 C 83.171875 -152.625 77.042969 -137.449219 67.703125 -122.566406 C 60.699219 -112.0625 54.570312 -99.804688 49.027344 -88.421875 C 46.691406 -107.101562 42.898438 -126.070312 42.898438 -145.914062 C 42.898438 -159.046875 31.808594 -159.046875 30.933594 -159.046875 L 28.308594 -159.335938 C 14.007812 -159.335938 11.671875 -131.90625 9.339844 -116.148438 C 8.171875 -106.808594 5.253906 -97.179688 5.253906 -87.546875 L 5.542969 -79.960938 L 5.253906 -72.082031 C 5.253906 -68.289062 6.710938 -65.660156 6.710938 -62.449219 C 6.710938 -60.992188 6.128906 -59.242188 6.128906 -57.199219 C 6.128906 -33.851562 14.882812 -11.382812 18.675781 -1.460938 C 19.84375 2.042969 18.675781 6.128906 22.179688 8.171875 C 25.390625 10.214844 30.058594 14.300781 34.4375 14.300781 C 42.605469 13.425781 42.316406 11.382812 45.816406 9.339844 C 53.695312 4.667969 54.863281 8.753906 58.074219 -9.921875 C 58.949219 -14.882812 59.824219 -18.675781 59.53125 -24.222656 L 59.242188 -29.472656 C 59.242188 -44.066406 68.871094 -63.617188 71.207031 -77.917969 C 72.082031 -85.503906 79.960938 -99.511719 83.753906 -109.433594 C 85.796875 -114.394531 88.714844 -119.355469 92.800781 -124.027344 C 90.757812 -111.1875 89.007812 -97.179688 89.007812 -84.046875 L 89.300781 -67.996094 C 89.300781 -61.285156 87.839844 -54.863281 87.839844 -48.734375 C 87.839844 -33.269531 91.050781 -18.09375 94.550781 -3.210938 C 96.304688 4.085938 96.011719 16.632812 109.726562 16.632812 C 115.5625 16.632812 122.277344 11.964844 122.277344 8.171875 C 129.570312 -3.210938 136.867188 -14.007812 142.410156 -26.554688 L 151.75 -45.523438 C 156.417969 -54.570312 160.214844 -59.824219 163.421875 -68.871094 C 165.464844 -80.253906 171.886719 -90.757812 175.097656 -97.46875 C 180.058594 -108.269531 183.851562 -119.648438 187.351562 -131.03125 C 187.644531 -133.074219 190.269531 -134.53125 191.148438 -136.574219 C 193.191406 -142.121094 196.984375 -148.539062 198.152344 -153.210938 C 199.609375 -159.921875 201.359375 -165.175781 203.402344 -171.886719 C 204.570312 -176.261719 208.65625 -179.183594 208.65625 -183.851562 C 208.65625 -184.726562 208.363281 -185.601562 208.074219 -186.1875 Z M 204.863281 -186.1875 "/></g></g></g></svg>